<svg width="32" height="32" viewBox="0 0 32 32" fill="none" xmlns="http://www.w3.org/2000/svg">
<path d="M19.7183 12.5714C20.4003 12.5714 21.0543 12.8424 21.5366 13.3246C22.0188 13.8068 22.2897 14.4609 22.2897 15.1429V22.2846C22.2897 23.952 21.6274 25.5511 20.4484 26.7301C19.2693 27.9091 17.6703 28.5714 16.0029 28.5714C14.3355 28.5714 12.7364 27.9091 11.5574 26.7301C10.3784 25.5511 9.71602 23.952 9.71602 22.2846V15.1429C9.71602 14.4609 9.98693 13.8068 10.4692 13.3246C10.9514 12.8424 11.6055 12.5714 12.2874 12.5714H19.7183ZM19.7183 14.2857H12.2874C12.0601 14.2857 11.8421 14.376 11.6814 14.5368C11.5206 14.6975 11.4303 14.9155 11.4303 15.1429V22.2846C11.4303 23.4973 11.9121 24.6604 12.7696 25.5179C13.6271 26.3754 14.7902 26.8572 16.0029 26.8572C17.2156 26.8572 18.3786 26.3754 19.2362 25.5179C20.0937 24.6604 20.5754 23.4973 20.5754 22.2846V15.1429C20.5754 14.9155 20.4851 14.6975 20.3244 14.5368C20.1636 14.376 19.9456 14.2857 19.7183 14.2857ZM4.85659 12.5714H9.6063C9.14733 13.0491 8.82489 13.6411 8.67259 14.2857H4.85659C4.62926 14.2857 4.41124 14.376 4.25049 14.5368C4.08975 14.6975 3.99944 14.9155 3.99944 15.1429V21.1417C3.99899 21.7153 4.14243 22.2798 4.41662 22.7835C4.69082 23.2873 5.087 23.7142 5.56891 24.0252C6.05081 24.3362 6.60303 24.5213 7.17501 24.5636C7.74699 24.606 8.32044 24.5041 8.84287 24.2674C8.99487 24.8274 9.21316 25.36 9.48744 25.8583C8.70446 26.2005 7.84855 26.3422 6.99706 26.2706C6.14557 26.199 5.32535 25.9163 4.6105 25.4482C3.89565 24.9801 3.30871 24.3412 2.90272 23.5893C2.49673 22.8374 2.28448 21.9962 2.28516 21.1417V15.1429C2.28516 14.4609 2.55608 13.8068 3.03831 13.3246C3.52055 12.8424 4.1746 12.5714 4.85659 12.5714ZM27.1423 12.5714C27.8243 12.5714 28.4783 12.8424 28.9606 13.3246C29.4428 13.8068 29.7137 14.4609 29.7137 15.1429V21.1429C29.7141 21.9968 29.5018 22.8373 29.096 23.5887C28.6903 24.34 28.1039 24.9785 27.3896 25.4465C26.6754 25.9145 25.8559 26.1973 25.0051 26.2694C24.1542 26.3415 23.2988 26.2006 22.516 25.8594L22.58 25.7429C22.8246 25.2789 23.0223 24.7863 23.164 24.2697C23.6862 24.5047 24.2589 24.6051 24.8298 24.5619C25.4008 24.5186 25.9518 24.3331 26.4326 24.0222C26.9134 23.7112 27.3087 23.2848 27.5824 22.7819C27.8561 22.2789 27.9995 21.7155 27.9994 21.1429V15.1429C27.9994 14.9157 27.9093 14.6979 27.7488 14.5372C27.5883 14.3765 27.3706 14.286 27.1434 14.2857H23.3343C23.1817 13.641 22.8588 13.0489 22.3994 12.5714H27.1423ZM15.9994 3.42859C16.5247 3.42859 17.0449 3.53205 17.5302 3.73307C18.0155 3.93409 18.4564 4.22873 18.8279 4.60016C19.1993 4.9716 19.4939 5.41255 19.695 5.89786C19.896 6.38316 19.9994 6.9033 19.9994 7.42859C19.9994 7.95388 19.896 8.47402 19.695 8.95932C19.4939 9.44463 19.1993 9.88558 18.8279 10.257C18.4564 10.6285 18.0155 10.9231 17.5302 11.1241C17.0449 11.3251 16.5247 11.4286 15.9994 11.4286C14.9386 11.4286 13.9212 11.0072 13.171 10.257C12.4209 9.50687 11.9994 8.48946 11.9994 7.42859C11.9994 6.36772 12.4209 5.35031 13.171 4.60016C13.9212 3.85002 14.9386 3.42859 15.9994 3.42859ZM25.1457 4.57145C25.596 4.57145 26.0418 4.66013 26.4578 4.83243C26.8738 5.00473 27.2517 5.25728 27.5701 5.57565C27.8885 5.89402 28.141 6.27199 28.3133 6.68796C28.4856 7.10393 28.5743 7.54977 28.5743 8.00002C28.5743 8.45026 28.4856 8.8961 28.3133 9.31208C28.141 9.72805 27.8885 10.106 27.5701 10.4244C27.2517 10.7428 26.8738 10.9953 26.4578 11.1676C26.0418 11.3399 25.596 11.4286 25.1457 11.4286C24.2364 11.4286 23.3643 11.0674 22.7214 10.4244C22.0784 9.7814 21.7172 8.90933 21.7172 8.00002C21.7172 7.0907 22.0784 6.21863 22.7214 5.57565C23.3643 4.93267 24.2364 4.57145 25.1457 4.57145ZM6.85316 4.57145C7.3034 4.57145 7.74924 4.66013 8.16522 4.83243C8.58119 5.00473 8.95915 5.25728 9.27752 5.57565C9.5959 5.89402 9.84844 6.27199 10.0207 6.68796C10.193 7.10393 10.2817 7.54977 10.2817 8.00002C10.2817 8.45026 10.193 8.8961 10.0207 9.31208C9.84844 9.72805 9.5959 10.106 9.27752 10.4244C8.95915 10.7428 8.58119 10.9953 8.16522 11.1676C7.74924 11.3399 7.3034 11.4286 6.85316 11.4286C5.94384 11.4286 5.07177 11.0674 4.42879 10.4244C3.78581 9.7814 3.42459 8.90933 3.42459 8.00002C3.42459 7.0907 3.78581 6.21863 4.42879 5.57565C5.07177 4.93267 5.94384 4.57145 6.85316 4.57145ZM15.9994 5.14287C15.3932 5.14287 14.8119 5.38369 14.3832 5.81234C13.9545 6.241 13.7137 6.82238 13.7137 7.42859C13.7137 8.0348 13.9545 8.61618 14.3832 9.04483C14.8119 9.47349 15.3932 9.7143 15.9994 9.7143C16.6057 9.7143 17.187 9.47349 17.6157 9.04483C18.0443 8.61618 18.2852 8.0348 18.2852 7.42859C18.2852 6.82238 18.0443 6.241 17.6157 5.81234C17.187 5.38369 16.6057 5.14287 15.9994 5.14287ZM25.1457 6.28573C24.9206 6.28573 24.6977 6.33007 24.4897 6.41622C24.2817 6.50237 24.0927 6.62865 23.9335 6.78783C23.7744 6.94702 23.6481 7.136 23.5619 7.34399C23.4758 7.55198 23.4314 7.77489 23.4314 8.00002C23.4314 8.22514 23.4758 8.44806 23.5619 8.65605C23.6481 8.86403 23.7744 9.05301 23.9335 9.2122C24.0927 9.37139 24.2817 9.49766 24.4897 9.58381C24.6977 9.66996 24.9206 9.7143 25.1457 9.7143C25.6004 9.7143 26.0364 9.53369 26.3579 9.2122C26.6794 8.89071 26.86 8.45467 26.86 8.00002C26.86 7.54536 26.6794 7.10933 26.3579 6.78783C26.0364 6.46634 25.6004 6.28573 25.1457 6.28573ZM6.85316 6.28573C6.62804 6.28573 6.40512 6.33007 6.19713 6.41622C5.98914 6.50237 5.80016 6.62865 5.64097 6.78783C5.48179 6.94702 5.35552 7.136 5.26936 7.34399C5.18321 7.55198 5.13887 7.77489 5.13887 8.00002C5.13887 8.22514 5.18321 8.44806 5.26936 8.65605C5.35552 8.86403 5.48179 9.05301 5.64097 9.2122C5.80016 9.37139 5.98914 9.49766 6.19713 9.58381C6.40512 9.66996 6.62804 9.7143 6.85316 9.7143C7.30782 9.7143 7.74385 9.53369 8.06534 9.2122C8.38683 8.89071 8.56744 8.45467 8.56744 8.00002C8.56744 7.54536 8.38683 7.10933 8.06534 6.78783C7.74385 6.46634 7.30782 6.28573 6.85316 6.28573Z" fill="white"/>
</svg>
