<svg width="214" height="214" viewBox="0 0 214 214" fill="none" xmlns="http://www.w3.org/2000/svg">
<rect x="0.5" y="0.5" width="213" height="213" rx="106.5" fill="#072449"/>
<rect x="0.5" y="0.5" width="213" height="213" rx="106.5" stroke="#3B526F"/>
<g clip-path="url(#clip0_1179_2064)">
<path d="M188.5 107.017C188.5 96.2032 174.978 85.9553 154.245 79.6003C159.03 58.4392 156.903 41.6034 147.534 36.2133C145.374 34.949 142.849 34.3501 140.092 34.3501V41.7698C141.62 41.7698 142.849 42.0692 143.879 42.6349C148.398 45.2301 150.358 55.112 148.83 67.822C148.464 70.9496 147.866 74.2435 147.135 77.604C140.623 76.0069 133.513 74.7759 126.038 73.9773C121.552 67.822 116.901 62.2322 112.216 57.3412C123.047 47.2597 133.214 41.7365 140.125 41.7365V34.3168C130.988 34.3168 119.027 40.8382 106.934 52.1507C94.8398 40.9047 82.8789 34.4499 73.7422 34.4499V41.8696C80.6197 41.8696 90.8196 47.3595 101.651 57.3745C96.9994 62.2655 92.3479 67.822 87.9291 73.9773C80.4203 74.7759 73.3102 76.0069 66.7982 77.6373C66.034 74.31 65.4692 71.0826 65.0705 67.9883C63.509 55.2783 65.436 45.3965 69.9213 42.768C70.9181 42.1691 72.2138 41.9029 73.7422 41.9029V34.4832C70.9513 34.4832 68.4262 35.0821 66.2334 36.3464C56.8973 41.7365 54.8041 58.539 59.6217 79.6336C38.956 86.0219 25.5 96.2365 25.5 107.017C25.5 117.83 39.0224 128.078 59.7546 134.433C54.9702 155.594 57.0966 172.43 66.466 177.82C68.6256 179.084 71.1506 179.683 73.9415 179.683C83.0783 179.683 95.0391 173.162 107.133 161.849C119.227 173.095 131.188 179.55 140.324 179.55C143.115 179.55 145.64 178.951 147.833 177.687C157.169 172.297 159.262 155.494 154.445 134.4C175.044 128.045 188.5 117.797 188.5 107.017ZM145.242 84.8241C144.012 89.1162 142.484 93.5414 140.756 97.9666C139.394 95.3048 137.965 92.6431 136.404 89.9813C134.875 87.3195 133.247 84.7243 131.619 82.1956C136.337 82.8943 140.889 83.7594 145.242 84.8241ZM130.025 120.259C127.433 124.751 124.775 129.01 122.018 132.969C117.067 133.402 112.05 133.634 107 133.634C101.983 133.634 96.9662 133.402 92.0489 133.002C89.2913 129.043 86.6001 124.817 84.0086 120.359C81.4835 116 79.191 111.575 77.0978 107.116C79.1578 102.658 81.4835 98.1995 83.9753 93.8408C86.5669 89.3491 89.2248 85.0903 91.9825 81.1309C96.9329 80.6983 101.95 80.4654 107 80.4654C112.017 80.4654 117.034 80.6983 121.951 81.0976C124.709 85.057 127.4 89.2826 129.991 93.741C132.517 98.0997 134.809 102.525 136.902 106.983C134.809 111.442 132.517 115.9 130.025 120.259ZM140.756 115.934C142.55 120.392 144.079 124.851 145.341 129.176C140.989 130.241 136.404 131.139 131.653 131.838C133.281 129.276 134.909 126.647 136.437 123.952C137.965 121.29 139.394 118.595 140.756 115.934ZM107.066 151.435C103.977 148.241 100.887 144.681 97.83 140.788C100.82 140.921 103.877 141.021 106.967 141.021C110.09 141.021 113.18 140.954 116.203 140.788C113.213 144.681 110.123 148.241 107.066 151.435ZM82.3473 131.838C77.6294 131.139 73.0777 130.274 68.7252 129.209C69.9545 124.917 71.4829 120.492 73.2106 116.067C74.5728 118.728 76.0014 121.39 77.563 124.052C79.1245 126.714 80.7193 129.309 82.3473 131.838ZM106.9 62.5982C109.99 65.7924 113.08 69.3525 116.137 73.2453C113.147 73.1122 110.09 73.0124 107 73.0124C103.877 73.0124 100.787 73.079 97.7636 73.2453C100.754 69.3525 103.844 65.7924 106.9 62.5982ZM82.3141 82.1956C80.6861 84.7575 79.0581 87.386 77.5298 90.0811C76.0014 92.7429 74.5728 95.4046 73.2106 98.0664C71.4164 93.6079 69.8881 89.1495 68.6256 84.8241C72.978 83.7926 77.563 82.8943 82.3141 82.1956ZM52.2458 123.852C40.4843 118.828 32.8759 112.24 32.8759 107.017C32.8759 101.793 40.4843 95.1717 52.2458 90.1809C55.1031 88.9498 58.2263 87.8518 61.449 86.8204C63.3428 93.3418 65.8347 100.129 68.9246 107.083C65.8679 114.004 63.4093 120.758 61.5487 127.246C58.2595 126.215 55.1364 125.083 52.2458 123.852ZM70.1207 171.398C65.6021 168.803 63.6419 158.921 65.1702 146.211C65.5357 143.084 66.1337 139.79 66.8647 136.429C73.3767 138.026 80.4868 139.257 87.9623 140.056C92.4476 146.211 97.0991 151.801 101.784 156.692C90.9525 166.774 80.7858 172.297 73.875 172.297C72.3799 172.264 71.1174 171.964 70.1207 171.398ZM148.929 146.045C150.491 158.755 148.564 168.637 144.079 171.265C143.082 171.864 141.786 172.13 140.258 172.13C133.38 172.13 123.18 166.641 112.349 156.626C117.001 151.735 121.652 146.178 126.071 140.023C133.58 139.224 140.69 137.993 147.202 136.363C147.966 139.723 148.564 142.951 148.929 146.045ZM161.721 123.852C158.864 125.083 155.741 126.181 152.518 127.213C150.624 120.692 148.132 113.904 145.042 106.95C148.099 100.029 150.557 93.2752 152.418 86.7871C155.707 87.8186 158.83 88.9498 161.754 90.1809C173.516 95.205 181.124 101.793 181.124 107.017C181.091 112.24 173.482 118.862 161.721 123.852Z" fill="#61DAFB"/>
<path d="M106.967 122.222C115.353 122.222 122.151 115.414 122.151 107.017C122.151 98.6189 115.353 91.8112 106.967 91.8112C98.5812 91.8112 91.7832 98.6189 91.7832 107.017C91.7832 115.414 98.5812 122.222 106.967 122.222Z" fill="#61DAFB"/>
</g>
<defs>
<clipPath id="clip0_1179_2064">
<rect width="163" height="186" fill="white" transform="translate(25.5 14)"/>
</clipPath>
</defs>
</svg>
