<svg width="214" height="214" viewBox="0 0 214 214" fill="none" xmlns="http://www.w3.org/2000/svg">
<rect x="0.5" y="0.5" width="213" height="213" rx="106.5" fill="#072449"/>
<rect x="0.5" y="0.5" width="213" height="213" rx="106.5" stroke="#3B526F"/>
<path d="M107.001 176C68.209 176 36.7094 145.303 37.002 106.5C37.2946 67.6967 66.7516 37 107.001 37C147.253 37 177 68.275 177 106.5C177 144.725 145.793 176 107.001 176ZM127.708 165.285L107.876 112.291L89.2087 166.444C102.919 169.631 112.251 170.497 127.708 165.285ZM79.294 162.391L49.5444 81.5967C45.4593 90.2842 44.5871 97.5247 44.0019 106.5C44.2945 130.244 57.7091 151.963 79.294 162.391ZM169.71 106.5C170 91.153 163.003 78.9905 162.418 77.253C163.003 89.1277 161.25 95.2062 159.21 101.868L138.793 160.075C164.46 144.725 169.415 121.847 170 106.5H169.71ZM104.961 103.894L95.0438 76.9625L87.7513 76.3842C84.8365 74.3563 86.5837 71.1717 88.6263 71.1717C101.751 72.0405 109.041 72.0405 122.168 71.1717C125.378 71.1717 126.251 75.806 122.458 76.3842L115.458 76.9625L138.205 143.566L148.995 107.078C149.58 91.153 145.202 89.4155 139.37 77.8313C134.703 68.8533 139.663 60.1658 148.705 59.878C141.41 52.928 126.538 44.2405 106.996 43.95C87.4533 43.6595 66.7461 53.5063 54.4963 72.0405L76.0811 71.4622C78.7061 72.6215 77.5385 76.3842 76.0811 76.6747L68.4988 77.253L91.2485 145.015L104.961 103.894Z" fill="#3DB8EF"/>
</svg>
