<svg width="65" height="56" viewBox="0 0 65 56" fill="none" xmlns="http://www.w3.org/2000/svg">
<rect width="63.7025" height="56" transform="translate(0.648438)" fill="white"/>
<path d="M56.5 28.005C56.5 24.8074 52.5179 21.7771 46.4128 19.898C47.8216 13.6407 47.1955 8.66234 44.4364 7.06849C43.8004 6.69462 43.0569 6.51753 42.2448 6.51753V8.71153C42.6949 8.71153 43.0569 8.80008 43.3602 8.96733C44.6908 9.73474 45.268 12.6568 44.818 16.4151C44.7104 17.3399 44.5342 18.314 44.319 19.3077C42.4013 18.8354 40.3076 18.4714 38.1062 18.2353C36.7854 16.4151 35.4156 14.7622 34.0361 13.316C37.2256 10.3349 40.2195 8.70169 42.2546 8.70169V6.50769C39.564 6.50769 36.0418 8.43605 32.4804 11.7812C28.9191 8.45573 25.3969 6.54704 22.7063 6.54704V8.74104C24.7316 8.74104 27.7352 10.3644 30.9248 13.3258C29.555 14.7721 28.1853 16.4151 26.884 18.2353C24.6729 18.4714 22.5791 18.8354 20.6614 19.3175C20.4364 18.3336 20.2701 17.3793 20.1527 16.4643C19.6928 12.706 20.2603 9.78393 21.5811 9.00669C21.8746 8.82959 22.2562 8.75088 22.7063 8.75088V6.55688C21.8844 6.55688 21.1408 6.73398 20.4951 7.10784C17.7458 8.70169 17.1294 13.6702 18.5481 19.9078C12.4625 21.7968 8.5 24.8173 8.5 28.005C8.5 31.2025 12.4821 34.2328 18.5872 36.1119C17.1784 42.3693 17.8045 47.3476 20.5636 48.9414C21.1996 49.3153 21.9431 49.4924 22.765 49.4924C25.4556 49.4924 28.9778 47.564 32.5391 44.2189C36.1005 47.5443 39.6227 49.453 42.3133 49.453C43.1351 49.453 43.8787 49.2759 44.5245 48.9021C47.2738 47.3082 47.8901 42.3397 46.4715 36.1021C52.5375 34.2229 56.5 31.1926 56.5 28.005ZM43.7613 21.4426C43.3993 22.7118 42.9492 24.0203 42.4405 25.3289C42.0393 24.5418 41.6186 23.7547 41.1588 22.9676C40.7087 22.1805 40.2293 21.4131 39.7499 20.6654C41.1392 20.872 42.4796 21.1278 43.7613 21.4426ZM39.2803 31.9207C38.5171 33.2489 37.7344 34.5082 36.9223 35.679C35.4645 35.8069 33.9872 35.8758 32.5 35.8758C31.0226 35.8758 29.5453 35.8069 28.0972 35.6889C27.2852 34.5181 26.4927 33.2686 25.7295 31.9502C24.9859 30.6614 24.3108 29.3528 23.6945 28.0345C24.3011 26.7161 24.9859 25.3977 25.7197 24.1089C26.4829 22.7807 27.2656 21.5213 28.0777 20.3505C29.5355 20.2226 31.0128 20.1538 32.5 20.1538C33.9774 20.1538 35.4548 20.2226 36.9028 20.3407C37.7148 21.5115 38.5073 22.761 39.2705 24.0794C40.0141 25.3682 40.6892 26.6767 41.3055 27.9951C40.6892 29.3135 40.0141 30.6318 39.2803 31.9207ZM42.4405 30.6417C42.9688 31.9601 43.4189 33.2784 43.7907 34.5574C42.509 34.8723 41.1588 35.1379 39.7597 35.3445C40.2391 34.587 40.7185 33.8097 41.1686 33.0128C41.6186 32.2257 42.0393 31.4288 42.4405 30.6417ZM32.5196 41.1394C31.6097 40.1949 30.6998 39.1422 29.7996 37.9911C30.6802 38.0304 31.5803 38.06 32.4902 38.06C33.4099 38.06 34.3198 38.0403 35.2102 37.9911C34.3296 39.1422 33.4197 40.1949 32.5196 41.1394ZM25.2403 35.3445C23.851 35.1379 22.5106 34.8821 21.2289 34.5673C21.5909 33.2981 22.041 31.9896 22.5497 30.681C22.9509 31.4681 23.3716 32.2552 23.8314 33.0423C24.2913 33.8294 24.7609 34.5968 25.2403 35.3445ZM32.4707 14.8705C33.3806 15.815 34.2905 16.8677 35.1906 18.0188C34.31 17.9795 33.4099 17.9499 32.5 17.9499C31.5803 17.9499 30.6704 17.9696 29.7801 18.0188C30.6606 16.8677 31.5705 15.815 32.4707 14.8705ZM25.2305 20.6654C24.7511 21.423 24.2717 22.2002 23.8216 22.9971C23.3716 23.7842 22.9509 24.5713 22.5497 25.3584C22.0214 24.04 21.5713 22.7216 21.1996 21.4426C22.4812 21.1376 23.8314 20.872 25.2305 20.6654ZM16.3761 32.9833C12.9126 31.4976 10.672 29.5496 10.672 28.005C10.672 26.4603 12.9126 24.5024 16.3761 23.0266C17.2175 22.6626 18.1372 22.3379 19.0862 22.0329C19.6439 23.9613 20.3777 25.9684 21.2876 28.0246C20.3875 30.0711 19.6635 32.0683 19.1156 33.9868C18.147 33.6818 17.2273 33.3473 16.3761 32.9833ZM21.6398 47.0426C20.3092 46.2752 19.732 43.3531 20.182 39.5948C20.2896 38.67 20.4658 37.6959 20.681 36.7022C22.5987 37.1745 24.6924 37.5385 26.8938 37.7746C28.2146 39.5948 29.5844 41.2477 30.9639 42.6939C27.7744 45.675 24.7805 47.3082 22.7454 47.3082C22.3051 47.2984 21.9333 47.2098 21.6398 47.0426ZM44.8473 39.5456C45.3072 43.3039 44.7397 46.226 43.4189 47.0032C43.1254 47.1803 42.7438 47.259 42.2937 47.259C40.2684 47.259 37.2648 45.6357 34.0752 42.6743C35.445 41.228 36.8147 39.5849 38.116 37.7648C40.3272 37.5287 42.4209 37.1647 44.3386 36.6826C44.5636 37.6763 44.7397 38.6306 44.8473 39.5456ZM48.6141 32.9833C47.7727 33.3473 46.853 33.672 45.904 33.977C45.3463 32.0486 44.6125 30.0415 43.7026 27.9853C44.6027 25.9389 45.3267 23.9416 45.8746 22.0231C46.8433 22.3281 47.7629 22.6626 48.6239 23.0266C52.0874 24.5123 54.328 26.4603 54.328 28.005C54.3182 29.5496 52.0777 31.5075 48.6141 32.9833Z" fill="#61DAFB"/>
<path d="M32.4908 32.5012C34.9602 32.5012 36.9621 30.4882 36.9621 28.005C36.9621 25.5218 34.9602 23.5088 32.4908 23.5088C30.0214 23.5088 28.0195 25.5218 28.0195 28.005C28.0195 30.4882 30.0214 32.5012 32.4908 32.5012Z" fill="#61DAFB"/>
</svg>
