<svg width="64" height="64" viewBox="0 0 64 64" fill="none" xmlns="http://www.w3.org/2000/svg">
<rect width="64" height="64" rx="16" fill="#1B5093"/>
<g clip-path="url(#clip0_503_2851)">
<path d="M31.3411 8.18042L32.7539 10.5335C33.0715 10.9677 33.4156 11.3521 33.8209 11.71C35.0091 12.7506 36.1167 13.8612 37.1361 15.0343C39.5298 17.8216 41.1444 20.917 42.2974 24.2647C42.9889 26.3097 43.3644 28.4075 43.3926 30.5288C43.5084 36.8707 41.0567 42.3162 36.1137 46.8419C35.3097 47.5596 34.4411 48.2181 33.5165 48.8107C33.0268 48.8107 32.7952 48.4777 32.5934 48.1711C32.2259 47.6025 31.9812 46.9781 31.8721 46.33C31.6984 45.5627 31.5843 44.7955 31.6405 44.0033V43.6453C31.6008 43.569 31.1691 8.36086 31.3411 8.18042Z" fill="#599636"/>
<path d="M31.3412 8.10272C31.2833 8.00003 31.2254 8.07778 31.1675 8.12765C31.1957 8.64111 30.9938 9.09881 30.6779 9.53598C30.3305 9.97022 29.8706 10.3032 29.409 10.6612C26.8449 12.6299 24.8267 15.0079 23.2104 17.6676C21.0599 21.2471 19.9515 25.0833 19.6372 29.122C19.4932 30.5787 20.1566 35.7191 20.6744 37.2023C22.0872 41.1397 24.6248 44.439 27.9119 47.3026C28.7192 47.9921 29.5827 48.6317 30.476 49.2464C30.7358 49.2464 30.7639 49.041 30.8234 48.8885C30.9373 48.562 31.0241 48.2286 31.0832 47.8909L31.6622 44.0561L31.3412 8.10272Z" fill="#6CAC48"/>
<path d="M32.7526 50.3688C32.8105 49.782 33.1281 49.2949 33.4738 48.8093C33.1264 48.6817 32.8684 48.4279 32.6665 48.1448C32.4925 47.8767 32.3485 47.5942 32.2364 47.3013C31.8328 46.2274 31.7468 45.1007 31.631 44.0034V43.3389C31.487 43.4416 31.4573 44.31 31.4573 44.4391C31.3731 45.5989 31.1995 46.7522 30.9378 47.891C30.8518 48.3516 30.7939 48.8108 30.4746 49.2201C30.4746 49.2714 30.4746 49.3228 30.5027 49.3991C31.0222 50.7546 31.1644 52.135 31.2521 53.5419V54.0554C31.2521 54.6686 31.224 54.5395 31.798 54.7449C32.0296 54.8211 32.2877 54.8475 32.5193 55.0001C32.693 55.0001 32.7211 54.8725 32.7211 54.7698L32.6351 53.9263V51.5732C32.607 51.1624 32.693 50.7546 32.7509 50.3702L32.7526 50.3688Z" fill="#C2BFBF"/>
</g>
<defs>
<clipPath id="clip0_503_2851">
<rect width="53" height="47" fill="white" transform="translate(5 8)"/>
</clipPath>
</defs>
</svg>
