<svg width="64" height="64" viewBox="0 0 64 64" fill="none" xmlns="http://www.w3.org/2000/svg">
<rect width="64" height="64" rx="16" fill="#1B5093"/>
<g clip-path="url(#clip0_503_2862)">
<path d="M31.5024 54.0349C30.9091 54.0351 30.3263 53.8793 29.8124 53.5831L24.4349 50.4031C23.6323 49.9544 24.0234 49.7959 24.2888 49.7034C25.1424 49.44 25.9596 49.0711 26.7216 48.6052C26.7854 48.5757 26.8556 48.563 26.9257 48.5682C26.9958 48.5734 27.0634 48.5964 27.1221 48.635L31.2542 51.0871C31.3312 51.1277 31.4169 51.149 31.5039 51.149C31.591 51.149 31.6767 51.1277 31.7537 51.0871L47.8676 41.7965C47.943 41.7514 48.0053 41.6875 48.0486 41.611C48.0918 41.5346 48.1144 41.4482 48.1141 41.3604V22.7762C48.1142 22.687 48.0912 22.5993 48.0475 22.5216C48.0038 22.4438 47.9407 22.3786 47.8644 22.3322L31.7505 13.0496C31.6745 13.0068 31.5888 12.9844 31.5016 12.9844C31.4144 12.9844 31.3286 13.0068 31.2526 13.0496L15.1482 22.3354C15.0714 22.3808 15.0076 22.4452 14.963 22.5224C14.9184 22.5997 14.8946 22.6871 14.8937 22.7762V41.3526C14.894 41.4402 14.9175 41.5261 14.9619 41.6017C15.0064 41.6772 15.0701 41.7396 15.1466 41.7824L19.5661 44.3302C21.9612 45.5256 23.4281 44.1168 23.4281 42.7017V24.3607C23.4281 24.2989 23.4403 24.2377 23.464 24.1806C23.4877 24.1235 23.5224 24.0716 23.5661 24.0279C23.6099 23.9842 23.6618 23.9496 23.719 23.9259C23.7762 23.9023 23.8374 23.8901 23.8993 23.8901H25.941C26.066 23.8901 26.1858 23.9397 26.2742 24.0279C26.3626 24.1162 26.4122 24.2359 26.4122 24.3607V42.7033C26.4122 45.8959 24.672 47.7235 21.6408 47.7235C20.3332 47.7463 19.046 47.397 17.9296 46.7163L13.6938 44.2894C13.1796 43.9903 12.7529 43.5616 12.4564 43.0463C12.1599 42.531 12.0038 41.947 12.0039 41.3526V22.7762C12.0024 22.1809 12.1578 21.5957 12.4544 21.0793C12.751 20.563 13.1785 20.1337 13.6938 19.8347L29.8093 10.541C30.3284 10.2573 30.9106 10.1086 31.5024 10.1086C32.0941 10.1086 32.6763 10.2573 33.1954 10.541L49.3093 19.8347C49.8235 20.1332 50.2503 20.5612 50.5471 21.076C50.8439 21.5908 51.0003 22.1743 51.0008 22.7684V41.3526C50.9999 41.947 50.8433 42.5308 50.5466 43.046C50.2499 43.5612 49.8233 43.9899 49.3093 44.2894L33.1954 53.5831C32.6807 53.8797 32.0967 54.0356 31.5024 54.0349Z" fill="#00D486"/>
<path d="M28.4453 35.1353C28.4453 35.0105 28.495 34.8908 28.5833 34.8025C28.6717 34.7143 28.7915 34.6647 28.9165 34.6647H31.0006C31.112 34.6651 31.2196 34.7048 31.3044 34.7769C31.3892 34.849 31.4457 34.9487 31.4639 35.0585C31.778 37.1779 32.7204 38.2463 36.9813 38.2463C40.3753 38.2463 41.8217 37.4792 41.8217 35.6797C41.8217 34.6427 41.4118 33.8724 36.1363 33.3563C31.7262 32.9202 28.9997 31.9444 28.9997 28.424C28.9997 25.1765 31.7403 23.239 36.3342 23.239C41.4966 23.239 44.0519 25.029 44.3755 28.8695C44.3804 28.9336 44.3721 28.9981 44.3512 29.0589C44.3302 29.1197 44.297 29.1755 44.2536 29.223C44.2102 29.2705 44.1575 29.3086 44.0987 29.3349C44.04 29.3613 43.9765 29.3753 43.9121 29.3762H41.8139C41.7086 29.3747 41.6069 29.3381 41.5249 29.2721C41.4429 29.2062 41.3854 29.1147 41.3616 29.0123C40.8606 26.783 39.6339 26.0707 36.3358 26.0707C32.6293 26.0707 32.1989 27.3603 32.1989 28.3267C32.1989 29.497 32.7078 29.839 37.7116 30.4995C42.6636 31.1537 45.0162 32.0793 45.0162 35.5558C45.0162 39.0637 42.0887 41.0717 36.9829 41.0717C29.9232 41.0812 28.4453 37.8478 28.4453 35.1353Z" fill="#00D486"/>
</g>
<defs>
<clipPath id="clip0_503_2862">
<rect width="39" height="48" fill="white" transform="translate(12 8)"/>
</clipPath>
</defs>
</svg>
