<svg width="64" height="64" viewBox="0 0 64 64" fill="none" xmlns="http://www.w3.org/2000/svg">
<rect width="64" height="64" rx="16" fill="#1B5093"/>
<g clip-path="url(#clip0_503_2936)">
<path d="M10.8258 20H53.153C55.8316 20 58.0002 22.1629 58.0002 24.835V40.9513C58.0002 43.6232 55.8318 45.7863 53.153 45.7863H37.9741L40.0575 50.8756L30.8947 45.7863H10.8473C8.16872 45.7863 6.00015 43.6234 6.00015 40.9513V24.835C5.9789 22.1842 8.14719 20 10.8258 20Z" fill="#7F54B3"/>
<path d="M8.96133 24.4068C9.25726 24.0062 9.70117 23.7954 10.293 23.7532C11.3711 23.6689 11.9841 24.1749 12.1321 25.2713C12.7874 29.6782 13.506 33.4101 14.2671 36.4676L18.8963 27.6751C19.3191 26.8739 19.8476 26.4522 20.4817 26.41C21.4118 26.3468 21.9825 26.9372 22.215 28.1812C22.7435 30.9856 23.4199 33.3681 24.2232 35.3922C24.7728 30.0365 25.7029 26.1781 27.0135 23.7954C27.3306 23.205 27.7956 22.9098 28.4086 22.8677C28.8948 22.8255 29.3387 22.9731 29.7403 23.2894C30.1419 23.6056 30.3533 24.0062 30.3956 24.4912C30.4167 24.8707 30.3533 25.187 30.1842 25.5033C29.3598 27.0214 28.6834 29.5728 28.1339 33.1149C27.6054 36.5518 27.4152 39.2296 27.542 41.1484C27.5843 41.6755 27.4997 42.1394 27.2883 42.54C27.0347 43.0038 26.6542 43.2569 26.168 43.299C25.6184 43.3412 25.0477 43.0882 24.4981 42.5189C22.5323 40.5158 20.968 37.5218 19.8266 33.5366C18.4527 36.2354 17.4381 38.2597 16.7828 39.6091C15.5357 41.9917 14.4788 43.2147 13.5909 43.2779C13.0202 43.32 12.534 42.8351 12.1112 41.823C11.0332 39.0608 9.87056 33.7263 8.62337 25.8195C8.53882 25.2713 8.66565 24.7863 8.96157 24.4068L8.96133 24.4068ZM54.3882 27.7171C53.6272 26.3888 52.5069 25.5875 51.0062 25.2712C50.6046 25.1868 50.2241 25.1447 49.8647 25.1447C47.8355 25.1447 46.1867 26.1989 44.8973 28.3075C43.7981 30.0997 43.2485 32.0818 43.2485 34.2534C43.2485 35.877 43.5867 37.2685 44.2631 38.4283C45.0241 39.7566 46.1444 40.558 47.6452 40.8742C48.0468 40.9586 48.4273 41.0007 48.7866 41.0007C50.837 41.0007 52.4857 39.9465 53.754 37.8379C54.8532 36.0246 55.4028 34.0426 55.4028 31.8709C55.424 30.2263 55.0646 28.8558 54.3882 27.7171ZM51.7248 33.5577C51.4289 34.9493 50.9004 35.9824 50.1183 36.6784C49.5053 37.2266 48.9346 37.4585 48.4061 37.3531C47.8988 37.2477 47.476 36.8049 47.159 35.9826C46.9053 35.3289 46.7785 34.6753 46.7785 34.0638C46.7785 33.5367 46.8208 33.0096 46.9265 32.5246C47.1167 31.6601 47.4761 30.8167 48.0468 30.0155C48.7443 28.9823 49.4842 28.5606 50.2452 28.7082C50.7525 28.8136 51.1753 29.2564 51.4923 30.0787C51.746 30.7324 51.8728 31.386 51.8728 31.9975C51.8728 32.5457 51.8305 33.0728 51.7248 33.5577ZM41.1556 27.7171C40.3947 26.3888 39.2532 25.5875 37.7736 25.2712C37.372 25.1868 36.9915 25.1447 36.6321 25.1447C34.6029 25.1447 32.9542 26.1989 31.6647 28.3075C30.5655 30.0997 30.0159 32.0818 30.0159 34.2534C30.0159 35.877 30.3541 37.2685 31.0306 38.4283C31.7915 39.7566 32.9119 40.558 34.4126 40.8742C34.8142 40.9586 35.1947 41.0007 35.5541 41.0007C37.6044 41.0007 39.2532 39.9465 40.5215 37.8379C41.6207 36.0246 42.1703 34.0426 42.1703 31.8709C42.1703 30.2263 41.8321 28.8558 41.1556 27.7171ZM38.4711 33.5577C38.1752 34.9493 37.6467 35.9824 36.8646 36.6784C36.2516 37.2266 35.6809 37.4585 35.1524 37.3531C34.6451 37.2477 34.2223 36.8049 33.9053 35.9826C33.6516 35.3289 33.5248 34.6753 33.5248 34.0638C33.5248 33.5367 33.5671 33.0096 33.6728 32.5246C33.863 31.6601 34.2224 30.8167 34.7931 30.0155C35.4906 28.9823 36.2305 28.5606 36.9915 28.7082C37.4988 28.8136 37.9216 29.2564 38.2386 30.0787C38.4923 30.7324 38.6191 31.386 38.6191 31.9975C38.6403 32.5457 38.5768 33.0728 38.4711 33.5577Z" fill="white"/>
</g>
<defs>
<clipPath id="clip0_503_2936">
<rect width="52" height="31" fill="white" transform="translate(6 20)"/>
</clipPath>
</defs>
</svg>
