<svg width="64" height="64" viewBox="0 0 64 64" fill="none" xmlns="http://www.w3.org/2000/svg">
<rect width="64" height="64" rx="16" fill="#1B5093"/>
<g clip-path="url(#clip0_503_2887)">
<path d="M52.8373 37.7526C52.5855 37.0835 51.9258 36.6174 51.0727 36.5056C50.6704 36.4529 50.2097 36.4754 49.6645 36.574C48.7143 36.7459 48.0093 36.8114 47.4948 36.8241C49.4368 33.9478 51.0159 30.6677 51.925 27.5801C53.395 22.5875 52.6094 20.313 51.6915 19.2842C49.2622 16.5612 45.718 15.0983 41.4422 15.0536C39.1612 15.0291 37.1588 15.4242 36.1143 15.7083C35.1417 15.5577 34.096 15.4737 32.9987 15.4581C30.9419 15.4294 29.1245 15.8227 27.5717 16.6311C26.712 16.3761 25.3322 16.0166 23.7389 15.7872C19.9913 15.2474 16.971 15.668 14.7617 17.0371C12.0865 18.6949 10.8463 21.5751 11.0757 25.5978C11.1485 26.875 11.9629 30.761 13.2453 34.4463C13.9822 36.5646 14.7681 38.3237 15.581 39.6751C16.7339 41.5915 17.9675 42.72 19.3523 43.1253C20.1285 43.3521 21.5388 43.511 23.0221 42.4272C23.2101 42.627 23.4609 42.8255 23.7938 43.0099C24.2166 43.2437 24.7336 43.4349 25.2499 43.5481C27.1105 43.9562 28.8533 43.8541 30.3402 43.2822C30.3494 43.5142 30.3565 43.7358 30.3624 43.9272C30.3722 44.2377 30.3821 44.5421 30.395 44.8268C30.4831 46.7516 30.6324 48.2483 31.0747 49.2955C31.099 49.3531 31.1317 49.4409 31.1661 49.534C31.3868 50.1267 31.7558 51.1189 32.6945 51.8959C33.6666 52.7009 34.8424 52.9477 35.9193 52.9477C36.4594 52.9477 36.9748 52.8856 37.4268 52.8006C39.0378 52.4977 40.8676 52.0363 42.1913 50.3828C43.4428 48.8198 44.0511 46.4656 44.1612 42.7563C44.1755 42.6513 44.1886 42.5512 44.2012 42.4557L44.2275 42.2597L44.5223 42.2825L44.5983 42.2869C46.2392 42.3525 48.2457 42.0473 49.478 41.5451C50.4517 41.1488 53.572 39.7036 52.8373 37.7526Z" fill="black"/>
<path d="M50.0309 38.1318C45.1516 39.0148 44.8161 37.5656 44.8161 37.5656C49.9677 30.8597 52.1214 22.3475 50.263 20.2642C45.1928 14.5814 36.4163 17.269 36.2698 17.3387L36.2227 17.3461C35.2587 17.1706 34.18 17.0661 32.9674 17.0487C30.7598 17.017 29.085 17.5564 27.8142 18.4018C27.8142 18.4018 12.1577 12.7436 12.886 25.5181C13.0408 28.2357 17.3262 46.0811 22.4374 40.6909C24.3055 38.7199 26.1107 37.0534 26.1107 37.0534C27.0072 37.5758 28.0805 37.8424 29.2056 37.7467L29.293 37.6816C29.2658 37.9263 29.2783 38.1656 29.328 38.449C28.0112 39.7396 28.3982 39.9661 25.766 40.4415C23.1025 40.9231 24.6671 41.7803 25.6888 42.0045C26.9273 42.2761 29.7924 42.661 31.7284 40.2835L31.6513 40.5548C32.1671 40.9173 32.5293 42.9127 32.4686 44.7217C32.4079 46.5305 32.3674 47.7725 32.7738 48.7425C33.1805 49.7126 33.5856 51.8952 37.046 51.2448C39.9373 50.7012 41.4356 49.2926 41.6442 46.9429C41.792 45.2725 42.1268 45.5195 42.1478 44.026L42.4164 43.319C42.726 41.0546 42.4656 40.3241 44.2468 40.6639L44.68 40.6973C45.9908 40.7495 47.7069 40.5122 48.7141 40.1016C50.8827 39.2187 52.1689 37.7445 50.0305 38.1318H50.0309Z" fill="#336791"/>
<path d="M28.7317 26.7335C28.292 26.6799 27.8938 26.7295 27.6923 26.8634C27.5791 26.9386 27.544 27.0259 27.5345 27.0859C27.5093 27.2449 27.6362 27.4208 27.7143 27.5115C27.9352 27.7682 28.2577 27.9447 28.577 27.9835C28.6232 27.9893 28.6693 27.9919 28.7151 27.9919C29.2475 27.9919 29.7316 27.6282 29.7743 27.3598C29.8276 27.0236 29.2713 26.7993 28.7317 26.7335ZM43.2978 26.7442C43.2558 26.4807 42.7213 26.4055 42.214 26.4674C41.7074 26.5293 41.2162 26.7299 41.2572 26.9941C41.29 27.1994 41.7128 27.55 42.2132 27.55C42.2555 27.55 42.2982 27.5476 42.3412 27.5423C42.6752 27.5017 42.9203 27.3156 43.0368 27.2084C43.214 27.0449 43.3167 26.8626 43.2978 26.7442Z" fill="#F3F3F6"/>
<path d="M51.6549 38.0316C51.4688 37.5381 50.87 37.3793 49.8751 37.5595C46.9212 38.0943 45.8633 37.7239 45.516 37.4995C47.812 34.431 49.7009 30.7218 50.7199 27.2611C51.2026 25.6218 51.4692 24.0994 51.491 22.8584C51.5151 21.4965 51.2506 20.4956 50.7053 19.8842C48.5065 17.4195 45.2794 16.0974 41.3731 16.0611C38.6875 16.0347 36.4186 16.6376 35.9787 16.8071C35.0524 16.605 34.0426 16.481 32.9432 16.4651C30.9272 16.4365 29.1846 16.8599 27.7418 17.7231C27.1151 17.5184 25.4954 17.0306 23.5147 16.7507C20.0904 16.2671 17.3693 16.6335 15.4274 17.8403C13.1104 19.2805 12.0407 21.8547 12.2479 25.4914C12.3176 26.7149 13.1123 30.4788 14.3664 34.0834C16.0172 38.8278 17.8117 41.5136 19.6998 42.0661C19.9208 42.1307 20.1756 42.1759 20.4566 42.1759C21.1453 42.1759 21.9898 41.9036 22.8683 40.977C23.9399 39.8493 25.0484 38.749 26.1924 37.6774C26.9346 38.0268 27.75 38.222 28.5839 38.2416C28.5856 38.2607 28.5877 38.2799 28.5897 38.2989C28.4461 38.449 28.3055 38.6014 28.168 38.7558C27.5902 39.3993 27.4699 39.5333 25.61 39.8692C25.0809 39.9651 23.6757 40.2191 23.655 41.0832C23.6327 42.0274 25.3161 42.4239 25.5079 42.4659C26.1763 42.6127 26.8203 42.6851 27.4343 42.6851C28.9278 42.6851 30.2421 42.2545 31.2924 41.4213C31.2601 44.7871 31.4201 48.1037 31.8808 49.1142C32.2581 49.9415 33.1798 51.9632 36.0913 51.9631C36.5185 51.9631 36.9887 51.9195 37.506 51.8222C40.5446 51.2508 41.8641 50.0726 42.3745 47.4752C42.6477 46.0871 43.1164 42.7723 43.3369 40.9943C43.8022 41.1217 44.4012 41.1799 45.0487 41.1798C46.3993 41.1798 47.9577 40.9281 48.9351 40.5301C50.033 40.0828 52.0142 38.9852 51.6549 38.0316ZM44.4187 26.0167C44.4087 26.5416 44.3264 27.0182 44.2391 27.5156C44.1451 28.0505 44.048 28.6036 44.0235 29.275C43.9994 29.9285 44.0924 30.6078 44.1823 31.2648C44.3641 32.5918 44.5506 33.9579 43.8286 35.3059C43.7087 35.1195 43.6018 34.9268 43.5087 34.7289C43.4189 34.5381 43.224 34.2315 42.9542 33.8072C41.9043 32.1556 39.4458 28.2877 40.7044 26.7094C41.0793 26.2397 42.0306 25.7567 44.4187 26.0167ZM41.524 17.124C45.0241 17.1918 47.7929 18.3405 49.7531 20.5379C51.2565 22.2234 49.601 29.8928 44.8082 36.5092C44.76 36.4554 44.7116 36.4018 44.6629 36.3484L44.6022 36.2819C45.8407 34.4876 45.5985 32.7123 45.3829 31.1383C45.2943 30.4924 45.2107 29.8823 45.232 29.3092C45.254 28.7018 45.3455 28.1808 45.4341 27.677C45.5429 27.0563 45.6536 26.414 45.6231 25.6568C45.6459 25.5773 45.6551 25.4835 45.6431 25.3721C45.5652 24.646 44.6202 22.4729 42.6941 20.506C41.6405 19.4301 40.1041 18.2262 38.0062 17.4142C38.9085 17.2501 40.1425 17.0971 41.524 17.124ZM21.9386 40.2988C20.9706 41.3198 20.3022 41.1241 20.0824 41.0599C18.6501 40.6408 16.9881 37.9851 15.5229 33.7739C14.255 30.13 13.5141 26.4658 13.4554 25.4383C13.2703 22.1888 14.1682 19.9241 16.1244 18.7071C19.3078 16.7267 24.5418 17.912 26.6449 18.5132C26.6147 18.5394 26.5832 18.5639 26.5533 18.5905C23.1021 21.648 23.184 26.8719 23.1925 27.1913C23.1922 27.3145 23.204 27.4889 23.2201 27.7289C23.2795 28.6075 23.39 30.2428 23.0947 32.0947C22.8204 33.8156 23.4251 35.4999 24.7536 36.716C24.8899 36.8405 25.0332 36.9591 25.1829 37.0712C24.5916 37.6267 23.3065 38.8553 21.9386 40.2988ZM25.6265 35.9821C24.5559 35.002 24.0696 33.6387 24.2922 32.2415C24.6039 30.2853 24.4889 28.5815 24.4271 27.6661C24.4184 27.538 24.4107 27.4258 24.4062 27.3372C24.9104 26.945 27.2468 25.8469 28.913 26.1818C29.6733 26.3345 30.1366 26.7887 30.3292 27.57C31.3261 31.6147 30.4611 33.3005 29.7662 34.6553C29.6229 34.9343 29.4876 35.1981 29.3721 35.471L29.2825 35.682C29.0558 36.2154 28.8448 36.7114 28.714 37.1823C27.5758 37.1794 26.4685 36.7528 25.6265 35.982V35.9821ZM25.8013 41.4369C25.4689 41.364 25.1699 41.2375 24.9946 41.1326C25.1411 41.0721 25.4018 40.9898 25.8539 40.9081C28.042 40.513 28.38 40.2341 29.1179 39.4121C29.2871 39.2236 29.4789 39.01 29.7445 38.7498L29.7448 38.7495C30.1404 38.3609 30.3213 38.4268 30.6495 38.5463C30.9154 38.6427 31.1745 38.9352 31.2795 39.257C31.3292 39.409 31.385 39.6974 31.2024 39.9219C29.6608 41.8154 27.4145 41.7911 25.8013 41.4369ZM37.2527 50.7851C34.5758 51.2882 33.628 50.0901 33.0034 48.7203C32.6003 47.836 32.4021 43.8485 32.5428 39.4448C32.5446 39.3862 32.535 39.3296 32.5167 39.2764C32.5002 39.1712 32.4752 39.0673 32.4419 38.9652C32.2328 38.3245 31.7234 37.7885 31.1123 37.5663C30.8695 37.4781 30.4239 37.3161 29.8884 37.4363C30.0026 37.0235 30.2006 36.5574 30.4154 36.0526L30.5054 35.8403C30.6068 35.601 30.7341 35.353 30.8687 35.0905C31.5959 33.6731 32.592 31.7317 31.511 27.3459C31.1061 25.7031 29.7539 24.9009 27.7041 25.0873C26.4752 25.1988 25.3509 25.6337 24.7901 25.8832C24.6696 25.9367 24.5593 25.9885 24.4563 26.0389C24.6128 24.3838 25.2041 21.2905 27.416 19.3334C28.8087 18.1014 30.6634 17.4929 32.9232 17.5257C37.3759 17.5896 40.2312 19.5942 41.8426 21.2648C43.2313 22.7042 43.9832 24.1542 44.2832 24.9363C42.0265 24.7349 40.4917 25.1257 39.7138 26.1015C38.0211 28.2241 40.6397 32.3438 41.8982 34.3238C42.1291 34.6866 42.3283 35.0002 42.3909 35.1335C42.8008 36.0048 43.3313 36.5866 43.7187 37.0112C43.8375 37.1413 43.9526 37.2675 44.0403 37.3777C43.3568 37.5506 42.1291 37.95 42.241 39.9464C42.1507 40.9481 41.5091 45.638 41.1831 47.295C40.7528 49.4841 39.8345 50.2995 37.2527 50.7852V50.7851ZM48.426 39.5681C47.7271 39.8527 46.5575 40.0661 45.4464 40.112C44.2192 40.1624 43.5945 39.9914 43.4475 39.8862C43.3786 38.6421 43.9064 38.5122 44.465 38.3746C44.5528 38.353 44.6384 38.3318 44.7211 38.3065C44.7725 38.3432 44.8287 38.3796 44.8904 38.4153C45.8768 38.9864 47.636 39.048 50.1198 38.5982L50.147 38.5935C49.812 38.8682 49.2387 39.237 48.426 39.5681Z" fill="#F3F3F6"/>
</g>
<defs>
<clipPath id="clip0_503_2887">
<rect width="42" height="38" fill="white" transform="translate(11 15)"/>
</clipPath>
</defs>
</svg>
