<svg width="208" height="208" viewBox="0 0 208 208" fill="none" xmlns="http://www.w3.org/2000/svg">
<rect x="0.5" y="0.5" width="207" height="207" rx="103.5" fill="#072449"/>
<rect x="0.5" y="0.5" width="207" height="207" rx="103.5" stroke="#3B526F"/>
<g clip-path="url(#clip0_1179_2124)">
<path d="M104 104C104 91.1136 114.407 80.6667 127.245 80.6667C140.083 80.6667 150.491 91.1136 150.491 104C150.491 116.887 140.083 127.333 127.245 127.333C114.407 127.333 104 116.887 104 104Z" fill="#1ABCFE"/>
<path d="M57.5098 150.667C57.5098 137.78 67.917 127.333 80.7551 127.333H104V150.667C104 163.553 93.5933 174 80.7551 174C67.917 174 57.5098 163.553 57.5098 150.667Z" fill="#0ACF83"/>
<path d="M104 34.0003V80.6667H127.245C140.084 80.6667 150.491 70.2201 150.491 57.3333C150.491 44.4466 140.084 34.0003 127.245 34.0003H104Z" fill="#FF7262"/>
<path d="M57.5098 57.3333C57.5098 70.2201 67.917 80.6667 80.7551 80.6667H104V34H80.7551C67.917 34 57.5098 44.4469 57.5098 57.3333Z" fill="#F24E1E"/>
<path d="M57.5098 104C57.5098 116.887 67.917 127.333 80.7551 127.333H104V80.6667H80.7551C67.917 80.6667 57.5098 91.1136 57.5098 104Z" fill="#A259FF"/>
</g>
<defs>
<clipPath id="clip0_1179_2124">
<rect width="93" height="140" fill="white" transform="translate(57.5 34)"/>
</clipPath>
</defs>
</svg>
