<svg width="32" height="32" viewBox="0 0 32 32" fill="none" xmlns="http://www.w3.org/2000/svg">
<path d="M24 21.333L26.4533 23.4477C27.484 24.337 28 24.781 28 25.333C28 25.885 27.484 26.329 26.4533 27.2183L24 29.333M18.6666 21.333L16.2133 23.4477C15.1826 24.337 14.6666 24.781 14.6666 25.333C14.6666 25.885 15.1826 26.329 16.2133 27.2183L18.6666 29.333" stroke="#05408E" stroke-width="1.5" stroke-linecap="round" stroke-linejoin="round"/>
<path d="M26.6667 17.3372V10.4265C26.6667 8.16784 26.6667 7.03984 26.3093 6.13717C25.736 4.68784 24.52 3.54384 22.98 3.00384C22.0227 2.6665 20.8227 2.6665 18.424 2.6665C14.2267 2.6665 12.128 2.6665 10.4507 3.2545C7.75733 4.20117 5.63067 6.2025 4.624 8.73984C4 10.3198 4 12.2945 4 16.2465V19.6412C4 23.7345 4 25.7812 5.13067 27.2038C5.45467 27.6105 5.83733 27.9718 6.27067 28.2772C7.48667 29.1345 9.13333 29.3012 12 29.3332" stroke="#05408E" stroke-width="1.5" stroke-linecap="round" stroke-linejoin="round"/>
<path d="M4 15.9998C4 14.8212 4.46821 13.6909 5.30162 12.8575C6.13503 12.024 7.26538 11.5558 8.444 11.5558C9.332 11.5558 10.3787 11.7105 11.2413 11.4798C11.6183 11.3784 11.9619 11.1796 12.2378 10.9035C12.5137 10.6274 12.7122 10.2835 12.8133 9.9065C13.044 9.04384 12.8893 7.99717 12.8893 7.10917C12.8897 5.93078 13.358 4.80077 14.1914 3.96765C15.0248 3.13453 16.1549 2.6665 17.3333 2.6665" stroke="#05408E" stroke-width="1.5" stroke-linecap="round" stroke-linejoin="round"/>
</svg>
