<svg width="57" height="56" viewBox="0 0 57 56" fill="none" xmlns="http://www.w3.org/2000/svg">
<path d="M1.66602 5.83337L8.66602 10.5V33.8334L1.66602 29.1667V5.83337Z" fill="#29B6F6"/>
<path d="M55.334 23.3334L48.334 28V43.1667L55.334 38.5V23.3334Z" fill="#0288D1"/>
<path d="M55.334 7L48.334 11.6667V19.8333L55.334 15.1667V7Z" fill="#0288D1"/>
<path d="M41.334 5.83337L34.334 10.5V33.8334L41.334 29.1667V5.83337Z" fill="#0288D1"/>
<path d="M1.66602 14L21.4993 26.8334V18.6667L1.66602 5.83337V14Z" fill="#29B6F6"/>
<path d="M41.3333 14L21.5 26.8334V18.6667L41.3333 5.83337V14Z" fill="#0288D1"/>
<path d="M41.3333 30.3333L21.5 43.1666V35L41.3333 22.1666V30.3333Z" fill="#0288D1"/>
<path d="M55.3333 39.6667L35.5 52.5V44.3333L55.3333 31.5V39.6667Z" fill="#0288D1"/>
<path d="M35.5 44.0592L21.5 35V43.1667L35.5 52.2258V44.0592Z" fill="#29B6F6"/>
</svg>
