<svg width="32" height="32" viewBox="0 0 32 32" fill="none" xmlns="http://www.w3.org/2000/svg">
<path d="M15.6026 26.5893C15.7768 26.5893 15.9555 26.5502 16.1386 26.4719C16.3217 26.3937 16.4697 26.2982 16.5826 26.1853L26.9773 15.7893C27.3124 15.4542 27.571 15.1119 27.7533 14.7626C27.9346 14.4115 28.0253 14.0266 28.0253 13.6079C28.0253 13.1839 27.9346 12.7724 27.7533 12.3733C27.571 11.9733 27.3124 11.6088 26.9773 11.2799L21.9773 6.27994C21.6475 5.94483 21.3084 5.69905 20.9599 5.54261C20.6124 5.38617 20.2266 5.30794 19.8026 5.30794C19.3839 5.30794 18.995 5.38617 18.6359 5.54261C18.2768 5.69905 17.9386 5.94439 17.6213 6.27861L16.4586 7.44128L18.9253 9.91461C19.1902 10.1751 19.3879 10.4711 19.5186 10.8026C19.6484 11.1342 19.7133 11.4706 19.7133 11.8119C19.7133 12.5062 19.4862 13.0804 19.0319 13.5346C18.5777 13.9888 18.0039 14.2155 17.3106 14.2146C16.9684 14.2146 16.6346 14.1626 16.3093 14.0586C15.9839 13.9546 15.691 13.7724 15.4306 13.5119L13.4693 11.5599C13.3155 11.4062 13.119 11.3293 12.8799 11.3293C12.6399 11.3293 12.443 11.4062 12.2893 11.5599L7.1226 16.7266C6.98838 16.8617 6.88749 17.0151 6.81993 17.1866C6.75238 17.3582 6.7186 17.5315 6.7186 17.7066C6.7186 18.0213 6.81949 18.2804 7.02127 18.4839C7.22215 18.6884 7.47993 18.7906 7.7946 18.7906C7.96882 18.7906 8.14749 18.7515 8.3306 18.6733C8.51371 18.5942 8.66171 18.4982 8.7746 18.3853L12.5279 14.6319C12.6524 14.5075 12.8044 14.4395 12.9839 14.4279C13.1635 14.4164 13.3262 14.4844 13.4719 14.6319C13.6142 14.7742 13.6853 14.9315 13.6853 15.1039C13.6853 15.2764 13.6142 15.4337 13.4719 15.5759L9.72527 19.3293C9.59016 19.4644 9.48882 19.6177 9.42127 19.7893C9.3546 19.9617 9.32127 20.1351 9.32127 20.3093C9.32127 20.6071 9.42616 20.8608 9.63593 21.0706C9.84571 21.2804 10.0995 21.3857 10.3973 21.3866C10.5715 21.3866 10.7502 21.3471 10.9333 21.2679C11.1164 21.1888 11.2644 21.0933 11.3773 20.9813L15.4386 16.9279C15.563 16.8026 15.7146 16.7342 15.8933 16.7226C16.0719 16.7111 16.2346 16.7791 16.3813 16.9266C16.5235 17.0688 16.5946 17.2262 16.5946 17.3986C16.5946 17.5711 16.5235 17.7284 16.3813 17.8706L12.3279 21.9319C12.2106 22.0448 12.1137 22.1928 12.0373 22.3759C11.9608 22.5591 11.9226 22.7377 11.9226 22.9119C11.9226 23.2088 12.0279 23.4622 12.2386 23.6719C12.4493 23.8835 12.703 23.9893 12.9999 23.9893C13.1742 23.9893 13.3475 23.9555 13.5199 23.8879C13.6924 23.8204 13.8453 23.7191 13.9786 23.5839L18.0413 19.5306C18.1657 19.4053 18.3173 19.3368 18.4959 19.3253C18.6746 19.3146 18.8377 19.3826 18.9853 19.5293C19.1266 19.6715 19.1973 19.8288 19.1973 20.0013C19.1973 20.1737 19.1262 20.3311 18.9839 20.4733L14.9239 24.5333C14.7897 24.6684 14.6888 24.8306 14.6213 25.0199C14.5537 25.2093 14.5199 25.3822 14.5199 25.5386C14.5199 25.8533 14.6306 26.1071 14.8519 26.2999C15.0733 26.4928 15.3239 26.5893 15.6039 26.5893M15.5959 27.9226C14.9106 27.9226 14.3239 27.6719 13.8359 27.1706C13.3479 26.6693 13.1337 26.0497 13.1933 25.3119C12.4377 25.3208 11.8088 25.0955 11.3066 24.6359C10.8044 24.1764 10.5657 23.5346 10.5906 22.7106C9.76749 22.7195 9.1186 22.4839 8.64393 22.0039C8.16927 21.5239 7.95327 20.8919 7.99593 20.1079C7.2546 20.1168 6.63415 19.9079 6.1346 19.4813C5.63593 19.0564 5.3866 18.4644 5.3866 17.7053C5.3866 17.3631 5.45282 17.0208 5.58527 16.6786C5.71771 16.3355 5.91327 16.0342 6.17193 15.7746L11.3653 10.5813C11.7742 10.1733 12.2782 9.96928 12.8773 9.96928C13.4764 9.96928 13.9804 10.1737 14.3893 10.5826L16.3239 12.5173C16.4368 12.6355 16.5764 12.7328 16.7426 12.8093C16.9088 12.8857 17.0959 12.9235 17.3039 12.9226C17.5893 12.9226 17.8413 12.8231 18.0599 12.6239C18.2786 12.4248 18.3884 12.1653 18.3893 11.8453C18.3893 11.6373 18.351 11.4506 18.2746 11.2853C18.1982 11.1191 18.1013 10.9795 17.9839 10.8666L13.3973 6.27994C13.0666 5.94483 12.723 5.69905 12.3666 5.54261C12.0102 5.38617 11.6199 5.30794 11.1959 5.30794C10.7773 5.30794 10.3968 5.38617 10.0546 5.54261C9.71327 5.69905 9.37504 5.94483 9.03993 6.27994L4.97993 10.3466C4.51415 10.8115 4.2146 11.3791 4.08127 12.0493C3.94793 12.7195 4.00882 13.3595 4.26393 13.9693C4.31371 14.1417 4.29149 14.3084 4.19727 14.4693C4.10304 14.6302 3.96971 14.7324 3.79727 14.7759C3.62482 14.8195 3.45371 14.7964 3.28393 14.7066C3.11415 14.6168 3.00749 14.4848 2.96393 14.3106C2.67682 13.4484 2.61415 12.5777 2.77593 11.6986C2.93771 10.8195 3.35549 10.0431 4.02927 9.36928L8.06127 5.33594C8.52615 4.8755 9.01815 4.53328 9.53727 4.30928C10.0564 4.08617 10.6177 3.97461 11.2213 3.97461C11.8248 3.97461 12.3813 4.08661 12.8906 4.31061C13.4008 4.53372 13.8862 4.8755 14.3466 5.33594L15.5066 6.49728L16.6693 5.33594C17.1342 4.8755 17.6217 4.53328 18.1319 4.30928C18.6422 4.08617 19.199 3.97461 19.8026 3.97461C20.4062 3.97461 20.9675 4.08661 21.4866 4.31061C22.0048 4.53372 22.4937 4.8755 22.9533 5.33594L27.9213 10.3026C28.3808 10.7622 28.7355 11.2782 28.9853 11.8506C29.235 12.4231 29.3595 13.0111 29.3586 13.6146C29.3586 14.2191 29.2342 14.7759 28.9853 15.2853C28.7364 15.7946 28.3817 16.2799 27.9213 16.7413L17.5253 27.1279C17.2488 27.4053 16.9475 27.6071 16.6213 27.7333C16.2959 27.8595 15.955 27.9226 15.5959 27.9226Z" fill="#05408E"/>
</svg>
