<svg width="24" height="24" viewBox="0 0 24 24" fill="none" xmlns="http://www.w3.org/2000/svg">
<path d="M1 6.04V15.56C1 16.101 1.16556 16.6199 1.46026 17.0025C1.75496 17.3851 2.15466 17.6 2.57143 17.6H10.9524L15.6667 21L14.619 17.6H21.4286C21.8453 17.6 22.245 17.3851 22.5397 17.0025C22.8344 16.6199 23 16.101 23 15.56V6.04C23 5.49896 22.8344 4.98008 22.5397 4.5975C22.245 4.21493 21.8453 4 21.4286 4H2.57143C2.15466 4 1.75496 4.21493 1.46026 4.5975C1.16556 4.98008 1 5.49896 1 6.04Z" stroke="#05408E" stroke-width="1.5" stroke-linejoin="round"/>
<path d="M3.88086 7.97299C4.33586 11.984 5.08686 14.197 5.08686 14.197L7.66686 9.38599C7.83486 11.219 8.46186 12.826 9.69086 14.198C9.48486 11.938 9.77786 9.77199 10.7779 7.73599M15.1129 11.218C15.3679 9.95999 14.8579 8.79599 13.9729 8.61699C13.0899 8.43699 12.1669 9.31199 11.9119 10.569C11.6569 11.826 12.1669 12.991 13.0519 13.17C13.9349 13.35 14.8579 12.475 15.1129 11.218ZM20.1409 11.278C20.4009 9.99699 19.9179 8.81799 19.0609 8.64499C18.2019 8.47299 17.2949 9.37199 17.0339 10.653C16.7729 11.934 17.2559 13.114 18.1139 13.287C18.9719 13.459 19.8789 12.56 20.1409 11.278Z" stroke="#05408E" stroke-linecap="round" stroke-linejoin="round"/>
</svg>
