<svg width="106" height="144" viewBox="0 0 106 144" fill="none" xmlns="http://www.w3.org/2000/svg">
<path d="M102.355 83.4595L84.4675 83.7355C81.8477 83.7355 81.396 85.4836 81.3056 86.4957V87.1398V94.1323C81.2153 108.025 68.5677 119.342 52.939 119.342C37.3102 119.342 24.6627 108.025 24.6627 94.1323V68.2783H54.2037V55.7654C46.0732 55.7654 39.117 50.521 36.3165 43.2525H24.753V4.79358C24.753 2.58541 23.0366 0.83728 20.8684 0.83728H3.8846C1.71645 0.83728 0 2.58541 0 4.79358V87.5998C0 95.0524 1.17441 102.137 3.61358 108.669C11.2021 129.279 29.27 142.896 50.5902 144C50.8612 144 51.5839 144 52.4873 144C58.4497 144 75.9756 142.804 89.7072 129.371C100.096 119.25 105.517 104.989 105.968 87.0478C105.968 85.0236 104.342 83.3675 102.355 83.3675V83.4595Z" fill="#4293FC"/>
</svg>
