<svg width="57" height="56" viewBox="0 0 57 56" fill="none" xmlns="http://www.w3.org/2000/svg">
<path d="M9.10166 13.3501C9.00833 10.654 11.1095 8.16663 13.9503 8.16663H43.054C45.8948 8.16663 47.996 10.654 47.9015 13.3501C47.8117 15.9413 47.9283 19.2966 48.773 22.0336C49.62 24.7788 51.0492 26.5136 53.3895 26.7365V29.2646C51.0492 29.4875 49.6212 31.2223 48.773 33.9675C47.9283 36.7033 47.8117 40.0598 47.9015 42.651C47.9948 45.346 45.8937 47.8333 43.054 47.8333H13.9503C11.1107 47.8333 9.00833 45.346 9.10283 42.6498C9.19266 40.0586 9.07599 36.7033 8.23133 33.9663C7.38433 31.2211 5.95166 29.4863 3.61133 29.2635V26.7353C5.95166 26.5125 7.38316 24.7776 8.23133 22.0325C9.07483 19.2966 9.19266 15.9413 9.10166 13.3501Z" fill="#7C4DFF"/>
<path d="M32.0843 27.3747V27.3421C34.2461 26.9687 35.9331 24.9422 35.9331 22.7104C35.9331 21.1331 35.3264 19.7961 34.1784 18.8464C33.0339 17.8991 31.4286 17.3986 29.5339 17.3986H20.8574V38.5934H29.5783C31.8439 38.5934 33.7258 38.0404 35.0184 36.9927C36.3123 35.9439 36.9971 34.4179 36.9971 32.5792C36.9959 29.8014 35.0243 27.7154 32.0843 27.3747ZM28.0208 26.3761H24.3096V20.1717H28.7243C31.1463 20.1717 32.4798 21.2346 32.4798 23.1642C32.4809 25.2351 30.8966 26.3761 28.0208 26.3761ZM24.3096 28.9731H28.6951C31.8638 28.9731 33.4691 30.1176 33.4691 32.3751C33.4691 34.6291 31.8859 35.8202 28.8899 35.8202H24.3096V28.9731Z" fill="white"/>
</svg>
