<svg width="57" height="56" viewBox="0 0 57 56" fill="none" xmlns="http://www.w3.org/2000/svg">
<path d="M48.3327 5.83337H8.66602L12.166 45.5L28.4993 50.1667L44.8327 45.5L48.3327 5.83337Z" fill="#0277BD"/>
<path d="M28.5 9.33337V46.55L41.5667 42.8167L44.4833 9.33337H28.5Z" fill="#039BE5"/>
<path d="M39.1167 15.1666H28.5V19.8333H34.2167L33.8667 24.5H28.5V29.1666H33.6333L33.2833 34.4166L28.5 36.05V40.95L37.7167 37.9166L38.5333 24.5L39.1167 15.1666Z" fill="white"/>
<path d="M28.5009 15.1666V19.8333H18.1176L17.7676 15.1666H28.5009ZM23.1342 24.5L23.3676 29.1666H28.5009V24.5H23.1342ZM23.6009 31.5H18.9342L19.2842 37.9166L28.5009 40.95V36.05L23.7176 34.4166L23.6009 31.5Z" fill="#EEEEEE"/>
</svg>
